<svg width="60" height="65" viewBox="0 0 60 65" fill="none" xmlns="http://www.w3.org/2000/svg">
<path d="M20.5 30L9.50002 2H7.00001C1.5 2 1.50001 2 1.5 13.5L1.50001 63L9.5 63V48.5C9.5 44 9.49999 44 14 44H24.5C30.397 44 30.397 44 30.397 49V63H37.6764V37.5C37.6764 30 37.6764 30 30.397 30H30.397H20.5Z" fill="#1F1F1F" stroke="#1098F7" stroke-width="1.5"/>
<path d="M26 30V28" stroke="#1098F7" stroke-width="1.5"/>
<circle cx="26" cy="27" r="1" fill="white" stroke="#1098F7"/>
<path d="M29 29V30H32V29C32 28 32 28 31 28C30 28 31 28 30 28C29 28 29 28 29 29Z" fill="white" stroke="#1098F7" stroke-width="1.5"/>
<path d="M9.5 2C21 14 20.5 13.5 20.5 30L9.5 2Z" fill="white" stroke="#1098F7" stroke-width="1.5"/>
<path d="M59 64.0001H50V24.3182C50 16.9546 59 16.5455 59 24.3182V64.0001Z" fill="#1F1F1F"/>
<path d="M59 12.4546H50V9.00006V2.00006C50 1.44778 50.4477 1.00006 51 1.00006H58C58.5523 1.00006 59 1.44778 59 2.00006V12.4546Z" fill="#1F1F1F"/>
<path d="M50 9.00006V2.00006C50 1.44778 50.4477 1.00006 51 1.00006H58C58.5523 1.00006 59 1.44778 59 2.00006V12.4546H50V9.00006ZM50 9.00006C50 9.00006 57 9.00006 54.5 6.50006M50 64.0001H59C59 64.0001 59 32.091 59 24.3182C59 16.5455 50 16.9546 50 24.3182C50 31.6819 50 64.0001 50 64.0001Z" stroke="#1098F7" stroke-width="1.5"/>
</svg>
